<?xml version="1.0" encoding="utf-8"?>
<!-- Generator: Adobe Illustrator 22.1.0, SVG Export Plug-In . SVG Version: 6.00 Build 0)  -->
<svg version="1.1" xmlns="http://www.w3.org/2000/svg" xmlns:xlink="http://www.w3.org/1999/xlink" x="0px" y="0px"
	 viewBox="0 0 15.56 15.55529" style="enable-background:new 0 0 15.56 15.55529;" xml:space="preserve">
<style type="text/css">
	.st0{fill:#FFFFFF;}
	.st1{fill:none;}
	.st2{fill:#C43D96;}
	.st3{fill:#E91F47;}
	.st4{fill:#EFE914;}
	.st5{fill:#B6D135;}
	.st6{fill:#6DC9C4;}
	.st7{fill:#2E4A9B;}
	.st8{fill:#F9A925;}
	.st9{fill:#2088C9;}
	.st10{fill:#804D9C;}
</style>
<g id="Layer_2">
</g>
<g id="Layer_3">
	<polygon class="st0" points="-0.60028,23.2247 -4.66028,33.30472 -7.04028,33.30472 -7.04028,28.1547 -9.12024,33.30472 
		-11.50024,33.30472 -7.44025,23.2247 -4.82025,23.2247 -4.82025,27.76468 -2.9903,23.2247 	"/>
	<polygon class="st0" points="-7.04028,33.27469 -7.04028,33.30472 -7.05029,33.30472 	"/>
	<polygon class="st0" points="3.13971,23.2247 -0.92029,33.30472 -3.31024,33.30472 0.74976,23.2247 	"/>
	<polygon class="st0" points="11.10974,23.2247 11.10974,23.24472 6.95972,27.61472 6.95972,33.30472 4.74976,33.30472 
		4.74976,28.31473 3.61975,31.11472 3.59973,31.13468 2.73975,33.30472 0.35974,33.30472 1.41974,30.67472 1.72974,29.88468 
		4.41974,23.2247 6.79974,23.2247 5.86975,25.5347 6.95972,24.38468 8.0697,23.2247 	"/>
	<polygon class="st0" points="11.12976,23.2247 11.10974,23.24472 11.10974,23.2247 	"/>
	<polygon class="st0" points="12.78973,25.37473 12.20972,26.80472 14.71973,26.80472 14.71973,26.82468 13.85974,29.01468 
		11.3197,29.01468 10.35974,31.4047 13.44971,31.4047 12.69971,33.30472 7.20972,33.30472 9.13971,28.51468 9.82971,26.80472 
		11.10974,23.61472 11.26971,23.2247 16.68976,23.2247 15.83972,25.37473 	"/>
	<polygon class="st0" points="11.12976,23.2247 11.10974,23.24472 11.10974,23.2247 	"/>
	<polygon class="st0" points="19.30975,26.3447 16.5097,33.30472 14.12976,33.30472 16.92975,26.3447 	"/>
	<polygon class="st0" points="20.5697,23.2247 19.85974,24.99472 17.46973,24.99472 18.17975,23.2247 	"/>
	<path class="st0" d="M25.27972,23.4047c-0.33997-0.17999-1.25-0.17999-1.25-0.17999h-2.39996L17.5697,33.30472h2.40002
		c5.23999,0,6.45001-5.54999,6.67999-7.16004C26.88971,24.52469,25.49976,23.5347,25.27972,23.4047z M23.58972,29.01468
		c-1.12,1.53003-2.84998,2.39001-2.84998,2.39001l1.78998-4.46997l0.66998-1.64001c0,0,0.72003,0.03998,0.89001,0.40997
		C24.26971,26.07468,24.69971,27.48471,23.58972,29.01468z"/>
	<line class="st1" x1="16.68973" y1="23.22472" x2="15.83973" y2="25.37472"/>
	<line class="st1" x1="13.44973" y1="31.40472" x2="12.69973" y2="33.30472"/>
	<line class="st1" x1="14.71973" y1="26.82472" x2="13.85973" y2="29.01472"/>
</g>
<g id="Layer_4">
	<g>
		<path class="st2" d="M6.81994,3.14526C5.72998,3.36529,4.77997,3.96527,4.09997,4.80529L1.76996,2.85528
			C2.88995,1.47528,4.47998,0.4953,6.28998,0.14526L6.81994,3.14526z"/>
		<path class="st3" d="M11.56,0.98529l-1.52002,2.63001c-0.66998-0.35999-1.44-0.57001-2.26001-0.57001
			c-0.33002,0-0.64996,0.02997-0.96002,0.09998l-0.52997-3c0.47998-0.08997,0.97998-0.13995,1.48999-0.13995
			C9.14996,0.00531,10.44,0.35528,11.56,0.98529z"/>
		<path class="st4" d="M15.56,7.77526c0,0.95001-0.17004,1.86999-0.48004,2.71002l-2.85999-1.03998
			c0.19-0.52002,0.29999-1.08002,0.29999-1.67004c0-0.58997-0.10999-1.14996-0.31-1.66998l2.87-1.03998
			C15.38995,5.90527,15.56,6.82525,15.56,7.77526z"/>
		<path class="st5" d="M15.07996,10.48528c-0.64996,1.73999-1.90997,3.20001-3.51996,4.08997l-1.52002-2.62994
			c1-0.54004,1.77997-1.43005,2.17999-2.5L15.07996,10.48528z"/>
		<path class="st6" d="M11.56,14.57525c-1.12,0.63-2.41003,0.98004-3.78003,0.98004c-0.51001,0-1.01001-0.04999-1.48999-0.15002
			l0.52997-2.98999c0.31006,0.07001,0.63,0.09998,0.96002,0.09998c0.82001,0,1.59003-0.20996,2.26001-0.56995L11.56,14.57525z"/>
		<path class="st7" d="M4.09998,10.7453l-2.34003,1.95996C0.65997,11.36529,0,9.64526,0,7.77527l3.04999,0
			C3.04999,8.89526,3.44,9.9353,4.09998,10.7453z"/>
		<path class="st8" d="M15.07996,5.0653l-2.87,1.03998C11.81,5.03527,11.02997,4.15527,10.03998,3.61529L11.56,0.98529
			C13.16998,1.8753,14.41998,3.32525,15.07996,5.0653z"/>
		<path class="st9" d="M6.81995,12.41528l-0.52997,2.98999c-1.81-0.33996-3.40002-1.32001-4.53003-2.70001l2.34003-1.95996
			C4.76996,11.58526,5.72998,12.19531,6.81995,12.41528z"/>
		<path class="st10" d="M4.09997,4.80529C3.44,5.61529,3.04999,6.65527,3.04999,7.77527L0,7.77527
			c0-1.85999,0.65997-3.57996,1.76996-4.91998L4.09997,4.80529z"/>
	</g>
	<g>
	</g>
	<g>
	</g>
	<g>
	</g>
	<g>
	</g>
	<g>
	</g>
	<g>
	</g>
</g>
</svg>
