<?xml version="1.0" encoding="utf-8"?>
<!-- Generator: Adobe Illustrator 22.1.0, SVG Export Plug-In . SVG Version: 6.00 Build 0)  -->
<svg version="1.1" xmlns="http://www.w3.org/2000/svg" xmlns:xlink="http://www.w3.org/1999/xlink" x="0px" y="0px"
	 viewBox="0 0 38.1777 10.08532" style="enable-background:new 0 0 38.1777 10.08532;" xml:space="preserve">
<style type="text/css">
	.st0{fill:#FFFFFF;}
	.st1{fill:#C43D96;}
	.st2{fill:#E91F47;}
	.st3{fill:#EFE914;}
	.st4{fill:#B6D135;}
	.st5{fill:#6DC9C4;}
	.st6{fill:#2E4A9B;}
	.st7{fill:#F9A925;}
	.st8{fill:#2088C9;}
	.st9{fill:#804D9C;}
</style>
<g id="Layer_2">
</g>
<g id="Layer_3">
	<polygon class="st0" points="10.89996,0.00531 6.83997,10.08532 4.45996,10.08532 4.45996,4.9353 2.38,10.08532 0,10.08532 
		4.06,0.00531 6.67999,0.00531 6.67999,4.54528 8.50995,0.00531 	"/>
	<polygon class="st0" points="4.45996,10.05529 4.45996,10.08532 4.44995,10.08532 	"/>
	<polygon class="st0" points="14.63995,0.00531 10.57996,10.08532 8.19,10.08532 12.25,0.00531 	"/>
	<polygon class="st0" points="22.60999,0.00531 22.60999,0.02533 18.45996,4.39532 18.45996,10.08532 16.25,10.08532 16.25,5.09533 
		15.12,7.89532 15.09998,7.91528 14.23999,10.08532 11.85999,10.08532 12.91998,7.45532 13.22998,6.66528 15.91998,0.00531 
		18.29999,0.00531 17.37,2.3153 18.45996,1.16528 19.56995,0.00531 	"/>
	<polygon class="st0" points="22.63,0.00531 22.60999,0.02533 22.60999,0.00531 	"/>
	<polygon class="st0" points="24.28998,2.15533 23.70996,3.58532 26.21997,3.58532 26.21997,3.60528 25.35999,5.79528 
		22.81995,5.79528 21.85999,8.1853 24.94995,8.1853 24.19995,10.08532 18.70996,10.08532 20.63995,5.29528 21.32996,3.58532 
		22.60999,0.39532 22.76996,0.00531 28.19,0.00531 27.33997,2.15533 	"/>
	<polygon class="st0" points="22.63,0.00531 22.60999,0.02533 22.60999,0.00531 	"/>
	<polygon class="st0" points="30.81,3.1253 28.00995,10.08532 25.63,10.08532 28.42999,3.1253 	"/>
	<polygon class="st0" points="32.06995,0.00531 31.35999,1.77533 28.96997,1.77533 29.67999,0.00531 	"/>
	<path class="st0" d="M36.77997,0.1853c-0.33997-0.17999-1.25-0.17999-1.25-0.17999H33.13l-4.06006,10.08002h2.40002
		c5.23999,0,6.45001-5.54999,6.67999-7.16003C38.38995,1.30529,37,0.3153,36.77997,0.1853z M35.08997,5.79528
		c-1.12,1.53003-2.84998,2.39001-2.84998,2.39001l1.78998-4.46997l0.66998-1.64001c0,0,0.72003,0.03998,0.89001,0.40997
		C35.76996,2.85528,36.19995,4.26532,35.08997,5.79528z"/>
	<line class="st0" x1="28.18998" y1="0.00532" x2="27.33998" y2="2.15532"/>
	<line class="st0" x1="24.94998" y1="8.18532" x2="24.19998" y2="10.08532"/>
	<line class="st0" x1="26.21998" y1="3.60532" x2="25.35998" y2="5.79532"/>
</g>
<g id="Layer_4">
	<g>
		<path class="st1" d="M18.32019-20.07414c-1.08997,0.22003-2.03998,0.82001-2.71997,1.66003l-2.33002-1.95001
			c1.11999-1.38,2.71002-2.35999,4.52002-2.71002L18.32019-20.07414z"/>
		<path class="st2" d="M23.06024-22.23411l-1.52002,2.63c-0.66998-0.35999-1.44-0.57001-2.26001-0.57001
			c-0.33002,0-0.64996,0.02997-0.96002,0.09998l-0.52997-3c0.47998-0.08997,0.97998-0.13995,1.48999-0.13996
			C20.65021-23.21409,21.94024-22.86412,23.06024-22.23411z"/>
		<path class="st3" d="M27.06024-15.44414c0,0.95001-0.17004,1.87-0.48004,2.71002l-2.85999-1.03998
			c0.19-0.52002,0.29999-1.08002,0.29999-1.67004c0-0.58996-0.10999-1.14996-0.31-1.66998l2.87-1.03998
			C26.8902-17.31413,27.06024-16.39415,27.06024-15.44414z"/>
		<path class="st4" d="M26.5802-12.73411c-0.64996,1.73999-1.90997,3.20001-3.51996,4.08997l-1.52002-2.62994
			c1-0.54004,1.77997-1.43005,2.17999-2.5L26.5802-12.73411z"/>
		<path class="st5" d="M23.06024-8.64415c-1.12,0.63-2.41003,0.98004-3.78003,0.98004c-0.51001,0-1.01001-0.04999-1.48999-0.15002
			l0.52997-2.98999c0.31006,0.07001,0.63,0.09998,0.96002,0.09998c0.82001,0,1.59003-0.20996,2.26001-0.56995L23.06024-8.64415z"/>
		<path class="st6" d="M15.60022-12.4741l-2.34003,1.95996c-1.09998-1.33997-1.75995-3.06-1.75995-4.92999l3.04999,0
			C14.55023-14.32414,14.94025-13.2841,15.60022-12.4741z"/>
		<path class="st7" d="M26.5802-18.1541l-2.87,1.03998c-0.39996-1.07001-1.17999-1.95001-2.16998-2.48999l1.52002-2.63
			C24.67023-21.3441,25.92023-19.89415,26.5802-18.1541z"/>
		<path class="st8" d="M18.32019-10.80412l-0.52997,2.98999c-1.81-0.33997-3.40002-1.32001-4.53003-2.70001l2.34003-1.95996
			C16.2702-11.63413,17.23023-11.02409,18.32019-10.80412z"/>
		<path class="st9" d="M15.60022-18.4141c-0.65997,0.81-1.04999,1.84998-1.04999,2.96997l-3.04999,0
			c0-1.85999,0.65997-3.57996,1.76996-4.91998L15.60022-18.4141z"/>
	</g>
	<g>
	</g>
	<g>
	</g>
	<g>
	</g>
	<g>
	</g>
	<g>
	</g>
	<g>
	</g>
</g>
</svg>
